<?xml version="1.0" encoding="UTF-8"?><svg id="Livello_1" xmlns="http://www.w3.org/2000/svg" viewBox="0 0 768 300"><defs><style>.cls-1{fill:#f3f3f3;}</style></defs><path id="path-1" class="cls-1" d="m0,320c9.4-17.74,18.1-29.4,26.1-34.97,1.59-1.11,19.06-16.64,21.08-17.76,3.5-1.94,7.16-3.99,9.73-5.62,8.36-5.28,12.97-9.12,17.09-12.1,19.37-14.03,30.17-24.52,31.17-24.43.52.05,6.51-5.28,14.33-11.04,8.39-6.18,18.75-12.89,22.67-15.34,7.47-4.65,15.77-8.51,18.65-9.95,5.8-2.89,14.93-6.14,22.96-8.59,5.02-1.54,15.47-3.73,24.64-4.78,7.63-.88,14.54-.76,15.21-.76,3.11,0,8.57.12,11.85,0,8.04-.29,15.74-2.72,21.31-4.66,5.57-1.94,13.9-5.33,20.54-8.89,9.79-5.26,18.03-11.26,19.86-12.45,3.86-2.51,18.45-14.16,36.4-30.92,16.59-15.49,34.6-34.42,50.4-49.74,17.19-16.66,31.53-29.1,32.4-29.36,3.43-1.03,19.25-16.05,32.64-22.42,1.1-.4,6.62-3.46,12.39-6.08,4.12-1.87,8.52-3.38,10.82-4.14,1.41-.47,2.99-1.11,4.43-1.42,2.61-.56,6.76-1.43,12.44-2.6,7.92-.81,8.28-.81,1.09,0,9.19-.93,16.18-1.12,20.99-.56.58.07,9.4.27,21.37,2.04,5.9.87,12.51,2.33,19.4,3.95,12.54,2.95,26.08,7.6,37.23,11.66,3.17,1.15,6.13,2.32,8.81,3.36.19.07.38.15.57.22.9.34,1.71.62,2.53.93.2.08.6.21.8.31.13.06.07.09.19.12.3.09,4.43,1.64,6.39,2.39,1.96.75,2.71,1.12,2.92,1.15.04,0,.5.22.64.26,1.4.47,6.7,2.65,6.71,2.66,3.61,1.1,7.2,2.57,10.4,3.81,3.04,1.18,5.72,2.13,8.58,3.2,2.75,1.02,6.7,2.39,11.86,4.1l23.88,7.22c8.33,2.02,14.55,3.48,18.67,4.39,4.12.91,8.15,1.71,12.1,2.41,15.07,2.37,26.22,3.88,33.44,4.53,6.05.54,15.64,1.14,24.1,1.46.84.03,1.77.04,2.64.07.76.03,1.94.07,3.54.11v239.33S0,320,0,320Z"/></svg>